<?xml version="1.0" standalone="no"?>
<!DOCTYPE svg PUBLIC "-//W3C//DTD SVG 20010904//EN"
 "http://www.w3.org/TR/2001/REC-SVG-20010904/DTD/svg10.dtd">
<svg version="1.0" xmlns="http://www.w3.org/2000/svg"
 width="233.000000pt" height="175.000000pt" viewBox="0 0 233.000000 175.000000"
 preserveAspectRatio="xMidYMid meet">

<g transform="translate(0.000000,175.000000) scale(0.100000,-0.100000)"
fill="#000000" stroke="none">
<path d="M1696 1536 l7 -30 -31 23 c-37 26 -40 21 -11 -20 l20 -29 -22 0 c-22
0 -22 -1 -7 -17 19 -19 88 -44 100 -37 4 3 8 -9 8 -25 0 -26 -4 -31 -25 -31
-32 0 -32 -10 3 -43 19 -18 39 -27 60 -27 18 0 32 -4 32 -8 0 -5 6 -17 14 -27
12 -16 16 -17 30 -6 14 12 16 9 16 -22 0 -19 3 -42 6 -51 5 -13 1 -14 -27 -6
-41 12 -45 8 -23 -27 29 -47 56 -73 76 -73 19 0 26 -34 8 -45 -14 -9 -12 -41
3 -54 10 -8 17 -7 25 1 19 19 25 2 10 -26 l-14 -27 -24 33 c-21 29 -24 30 -31
12 -13 -32 -10 -138 4 -159 23 -33 21 -108 -3 -130 -15 -14 -20 -15 -20 -4 0
8 -5 32 -11 54 l-11 40 -26 -50 c-14 -28 -28 -64 -32 -82 l-8 -32 50 25 c28
14 52 23 55 20 9 -9 -195 -106 -285 -136 -344 -114 -654 -84 -1099 107 -25 10
53 -228 86 -263 53 -57 287 -151 445 -179 244 -42 455 -5 682 122 81 45 83 48
113 115 37 82 75 214 67 233 -7 19 14 31 25 14 7 -11 9 -9 9 6 1 23 22 55 38
55 16 0 22 26 9 39 -9 10 -7 17 11 31 17 14 62 113 62 137 0 3 -13 -5 -30 -17
l-30 -21 0 25 c0 13 -3 32 -6 40 -4 12 -2 15 9 10 23 -8 34 36 13 51 -10 7
-14 19 -10 29 4 11 1 16 -11 16 -15 0 -16 5 -9 33 10 39 7 123 -5 144 -6 11
-10 4 -15 -27 l-7 -43 -31 43 c-26 35 -30 45 -20 61 10 15 9 24 0 39 -7 11
-18 20 -24 20 -6 0 -14 15 -17 33 -3 17 -11 46 -18 62 l-12 30 -11 -38 -12
-38 -23 25 c-13 13 -20 29 -17 35 4 5 -3 20 -14 33 -12 13 -32 37 -46 53 l-24
30 6 -29z m44 -1045 c11 -22 -2 -36 -25 -27 -21 8 -30 -14 -12 -31 12 -12 18
-13 35 -2 26 16 37 7 23 -19 -22 -42 -83 -35 -100 11 -11 29 0 55 29 72 34 18
38 18 50 -4z m-985 -1 c3 -5 -4 -29 -15 -52 -19 -38 -19 -40 -2 -20 23 30 62
26 78 -7 12 -24 13 -24 19 11 5 29 10 35 26 31 23 -6 22 -1 4 -53 -8 -23 -13
-46 -10 -50 8 -13 -11 -21 -30 -14 -10 4 -15 14 -12 25 3 11 1 19 -4 19 -5 0
-9 -7 -9 -15 0 -20 -20 -19 -50 2 -14 10 -29 18 -35 18 -58 5 -85 37 -65 76 9
17 18 20 41 15 16 -3 28 -2 28 2 -4 23 23 32 36 12z m843 -85 c24 -38 37 -43
46 -20 5 15 36 10 36 -6 0 -10 -90 -52 -97 -45 -3 3 -12 -1 -20 -9 -27 -28
-40 -18 -41 30 -1 25 -4 50 -7 55 -6 9 27 28 50 29 6 1 20 -15 33 -34z m-641
7 c7 -4 16 -19 22 -32 l10 -25 0 26 c1 22 5 26 26 21 27 -5 31 -12 16 -27 -5
-6 -13 -26 -18 -45 -12 -47 -38 -51 -57 -8 -14 31 -15 31 -9 4 5 -26 4 -28
-18 -21 -33 10 -34 12 -21 40 7 14 12 37 12 50 0 25 14 31 37 17z m495 -26
c12 -18 9 -26 -9 -27 -14 0 -13 -2 5 -9 23 -10 28 -26 14 -47 -11 -18 -84 -26
-94 -10 -12 19 -9 27 10 27 16 1 16 1 0 11 -20 11 -23 40 -7 56 15 15 72 14
81 -1z m-230 -27 c2 -7 24 -12 48 -13 44 -1 45 -1 45 -36 0 -33 -2 -35 -35
-35 -31 0 -35 3 -40 30 -3 19 -8 26 -13 18 -4 -7 -5 -24 -1 -39 6 -22 4 -25
-12 -22 -12 2 -20 13 -22 31 -4 35 -32 37 -32 2 0 -20 -5 -25 -26 -25 -20 0
-25 4 -20 16 3 9 6 27 6 40 0 21 5 24 34 24 19 0 38 5 41 10 8 13 22 13 27 -1z
m-124 -8 c8 -5 12 -21 10 -37 -2 -24 -8 -29 -35 -32 -37 -4 -56 20 -42 56 9
23 42 30 67 13z m412 -31 c0 -11 -7 -20 -15 -20 -8 0 -15 9 -15 20 0 11 7 20
15 20 8 0 15 -9 15 -20z"/>
<path d="M680 434 c0 -8 5 -12 10 -9 6 3 10 10 10 16 0 5 -4 9 -10 9 -5 0 -10
-7 -10 -16z"/>
<path d="M1278 293 c7 -3 16 -2 19 1 4 3 -2 6 -13 5 -11 0 -14 -3 -6 -6z"/>
<path d="M1067 334 c-4 -4 -7 -14 -7 -23 0 -11 3 -12 11 -4 6 6 10 16 7 23 -2
6 -7 8 -11 4z"/>
<path d="M690 1124 c-82 -48 -126 -100 -161 -188 -18 -45 -35 -84 -39 -88 -3
-5 -11 7 -18 25 -35 98 -139 58 -173 -67 -22 -82 -41 -117 -73 -133 -30 -15
-30 -16 -8 -24 33 -13 49 -2 66 44 8 23 22 64 32 90 35 98 68 113 127 59 35
-33 35 -52 -1 -52 -18 0 -38 -11 -57 -30 l-28 -29 35 6 c35 5 37 4 59 -42 27
-54 44 -56 45 -5 2 95 23 136 86 170 61 32 74 24 82 -47 12 -102 26 -98 24 7
l-3 95 -38 -1 c-26 -1 -54 -12 -84 -33 -42 -30 -44 -31 -38 -9 19 62 67 127
141 189 104 89 115 115 24 63z"/>
<path d="M1677 1114 c3 -7 8 -14 12 -14 4 0 6 -17 5 -37 l-3 -38 7 33 7 34 26
-29 c35 -37 51 -70 60 -118 6 -39 7 -39 8 -7 1 39 -19 81 -66 139 -35 43 -67
64 -56 37z"/>
<path d="M1661 954 c0 -11 3 -14 6 -6 3 7 2 16 -1 19 -3 4 -6 -2 -5 -13z"/>
<path d="M1525 890 c-16 -7 -16 -9 -4 -9 10 -1 36 -22 59 -48 40 -46 41 -46
10 -6 -17 24 -37 46 -43 50 -7 5 7 11 33 14 l45 6 -40 1 c-22 0 -49 -3 -60 -8z"/>
<path d="M1731 863 c-1 -12 -6 -34 -11 -49 l-11 -27 -31 29 -31 29 29 -37 c16
-21 32 -38 35 -38 10 0 32 87 26 102 -3 7 -6 3 -6 -9z"/>
<path d="M943 795 c6 -33 -31 -155 -49 -162 -8 -3 -14 -14 -14 -24 0 -16 8
-19 55 -19 48 0 55 2 55 20 0 12 -7 20 -16 20 -32 0 -6 25 29 28 28 2 37 -1
37 -12 0 -9 -7 -16 -15 -16 -8 0 -15 -9 -15 -20 0 -18 7 -20 65 -20 54 0 65 3
65 16 0 9 -6 22 -13 28 -7 6 -25 50 -41 99 l-27 87 -61 0 c-59 0 -60 0 -55
-25z m76 -92 c1 -7 -8 -13 -19 -13 -17 0 -19 4 -14 28 10 43 18 49 25 22 4
-14 7 -31 8 -37z"/>
<path d="M1193 750 c-63 -26 -55 -137 12 -154 14 -4 35 -1 46 5 17 8 20 8 17
-2 -8 -25 -36 -34 -67 -22 -25 9 -31 8 -36 -5 -17 -45 99 -59 140 -17 22 21
25 33 25 90 0 37 4 65 10 65 6 0 10 9 10 20 0 17 -7 20 -39 20 -21 0 -51 2
-67 5 -16 2 -39 0 -51 -5z m77 -73 c0 -4 -5 -17 -11 -28 -8 -16 -13 -18 -25
-8 -17 14 -18 51 -2 67 10 10 15 9 25 -5 7 -9 13 -21 13 -26z"/>
<path d="M1456 753 c-3 -4 -27 -6 -51 -4 -34 1 -45 -2 -45 -13 0 -8 5 -18 10
-21 6 -3 10 -24 10 -46 0 -21 -4 -39 -10 -39 -5 0 -10 -9 -10 -20 0 -17 7 -20
45 -20 34 0 47 4 52 17 4 9 1 19 -5 21 -7 2 -12 17 -12 34 0 21 6 31 20 35 14
4 20 14 20 34 0 28 -9 37 -24 22z"/>
<path d="M1542 750 c-31 -13 -55 -71 -43 -104 32 -83 171 -68 171 19 0 47 -8
64 -41 80 -32 17 -54 18 -87 5z m68 -74 c0 -31 -16 -50 -34 -43 -19 7 -22 57
-4 75 16 16 38 -3 38 -32z"/>
<path d="M330 712 c0 -33 30 -103 58 -134 14 -17 12 -18 -34 -18 -63 0 -135
-35 -189 -90 l-40 -41 40 17 c57 26 226 23 318 -4 61 -17 68 -18 62 -3 -4 9
-17 54 -31 100 -13 47 -25 86 -27 86 -1 1 -28 14 -59 28 -39 17 -64 37 -78 59
l-20 33 0 -33z"/>
<path d="M591 715 c-23 -30 -37 -83 -24 -96 5 -5 17 19 29 56 11 36 19 65 18
65 -2 0 -12 -11 -23 -25z"/>
<path d="M2075 719 c-8 -24 -84 -75 -125 -84 -23 -5 -30 -15 -45 -68 -11 -34
-27 -82 -37 -106 l-18 -43 22 6 c154 44 251 54 329 36 30 -7 60 -17 67 -23 7
-5 15 -8 18 -5 8 9 -88 89 -131 109 -22 10 -61 19 -87 19 l-47 0 35 57 c20 34
34 70 34 90 0 38 -6 42 -15 12z"/>
<path d="M311 637 c-22 -58 -2 -93 27 -47 10 17 10 25 -2 48 l-14 27 -11 -28z"/>
</g>
</svg>
